<?xml version="1.0" standalone="no"?>
<!DOCTYPE svg PUBLIC "-//W3C//DTD SVG 20010904//EN"
 "http://www.w3.org/TR/2001/REC-SVG-20010904/DTD/svg10.dtd">
<svg version="1.0" xmlns="http://www.w3.org/2000/svg"
 width="500.000000pt" height="309.000000pt" viewBox="0 0 500.000000 309.000000"
 preserveAspectRatio="xMidYMid meet">

<g transform="translate(0.000000,309.000000) scale(0.100000,-0.100000)"
fill="#000000" stroke="none">
<path d="M2729 1754 c-9 -11 -9 -18 -1 -26 14 -14 42 -3 42 16 0 20 -27 27
-41 10z"/>
<path d="M2826 1754 c-8 -8 -13 -21 -9 -30 8 -22 47 -13 51 12 4 27 -22 38
-42 18z"/>
<path d="M3650 1760 c0 -5 5 -10 11 -10 5 0 7 5 4 10 -3 6 -8 10 -11 10 -2 0
-4 -4 -4 -10z"/>
<path d="M2654 1739 c-10 -17 13 -36 27 -22 12 12 4 33 -11 33 -5 0 -12 -5
-16 -11z"/>
<path d="M2934 1736 c-10 -26 4 -48 28 -44 17 2 23 10 23 28 0 18 -6 26 -23
28 -13 2 -25 -3 -28 -12z"/>
<path d="M3055 1711 c-9 -31 5 -52 33 -49 33 4 50 31 33 52 -18 22 -58 20 -66
-3z"/>
<path d="M3610 1715 c0 -8 7 -15 15 -15 8 0 15 7 15 15 0 8 -7 15 -15 15 -8 0
-15 -7 -15 -15z"/>
<path d="M2590 1705 c0 -8 7 -15 15 -15 8 0 15 7 15 15 0 8 -7 15 -15 15 -8 0
-15 -7 -15 -15z"/>
<path d="M3197 1694 c-13 -13 -7 -52 9 -58 22 -9 46 13 42 38 -3 21 -37 34
-51 20z"/>
<path d="M3560 1686 c0 -9 7 -16 16 -16 17 0 14 22 -4 28 -7 2 -12 -3 -12 -12z"/>
<path d="M2540 1675 c0 -9 5 -15 11 -13 6 2 11 8 11 13 0 5 -5 11 -11 13 -6 2
-11 -4 -11 -13z"/>
<path d="M3317 1673 c-13 -12 -7 -44 9 -50 23 -9 48 25 33 44 -12 14 -32 17
-42 6z"/>
<path d="M3497 1674 c-14 -14 -7 -35 11 -32 9 2 17 10 17 17 0 16 -18 25 -28
15z"/>
<path d="M3410 1651 c0 -27 19 -36 37 -18 18 18 9 37 -18 37 -12 0 -19 -7 -19
-19z"/>
<path d="M2515 1630 c3 -5 8 -10 11 -10 2 0 4 5 4 10 0 6 -5 10 -11 10 -5 0
-7 -4 -4 -10z"/>
<path d="M2520 1538 c-59 -30 -85 -76 -85 -149 0 -64 28 -114 80 -145 42 -26
130 -25 174 1 38 22 45 33 32 53 -7 11 -17 10 -51 -8 -54 -27 -102 -22 -141
16 -51 49 -51 124 1 175 21 21 38 29 65 29 43 0 75 -15 75 -35 0 -9 10 -15 25
-15 21 0 25 5 25 30 0 63 -116 91 -200 48z"/>
<path d="M2870 1538 c-59 -31 -82 -65 -88 -131 -9 -107 60 -182 167 -182 104
0 171 64 171 162 0 30 -5 64 -11 76 -46 89 -148 121 -239 75z m153 -58 c39
-34 51 -73 37 -121 -13 -44 -47 -77 -87 -85 -73 -14 -133 42 -133 125 0 36 6
49 34 77 46 46 100 48 149 4z"/>
<path d="M3333 1545 c-17 -7 -36 -23 -43 -34 -6 -12 -15 -21 -21 -21 -6 0 -7
4 -4 10 3 5 1 19 -5 30 -8 15 -21 20 -50 20 -36 0 -40 -3 -40 -25 0 -18 5 -25
20 -25 19 0 20 -7 20 -135 l0 -135 29 0 29 0 4 106 c3 105 3 106 36 135 18 16
44 29 58 29 22 0 25 4 22 27 -4 33 -14 36 -55 18z"/>
<path d="M3496 1537 c-51 -29 -76 -77 -76 -147 0 -89 52 -150 141 -165 40 -7
103 7 132 29 15 12 16 18 6 33 -11 19 -12 19 -48 1 -51 -27 -108 -19 -143 22
-16 16 -28 41 -28 55 l0 25 121 0 122 0 -7 43 c-9 52 -28 82 -69 107 -43 26
-103 25 -151 -3z m135 -46 c10 -9 20 -26 24 -38 6 -23 5 -23 -84 -23 -50 0
-91 3 -91 6 0 13 24 50 39 59 43 27 83 26 112 -4z"/>
</g>
</svg>
